<svg width="32" height="32" viewBox="0 0 32 32" fill="none" xmlns="http://www.w3.org/2000/svg">
<path d="M17.1428 17.144C17.2845 17.144 17.4239 17.1566 17.5588 17.1817C17.029 17.68 16.5644 18.2434 16.1759 18.8583L4.57136 18.8571L4.45707 18.8686C4.34738 18.8914 4.2466 18.9454 4.16679 19.024C4.08814 19.1033 4.03415 19.2038 4.01136 19.3131L3.99993 19.4286V22.2857C3.99993 23.816 4.67079 24.9474 6.05136 25.7428C7.18964 26.4011 8.78279 26.7977 10.4674 26.8514L10.8571 26.8571L11.3542 26.8457C12.2525 26.8057 13.8651 26.6366 15.2422 25.9771C15.4136 26.5257 15.6376 27.0514 15.9085 27.5463C14.3371 28.2823 12.4776 28.5714 10.8571 28.5714C7.25822 28.5714 2.48107 27.1451 2.29136 22.5691L2.28564 22.2857V19.4286C2.28564 18.224 3.21822 17.2366 4.39993 17.1486L4.57136 17.1428L17.1428 17.144ZM28.5714 9.71428C28.5714 11.0782 28.0295 12.3864 27.0651 13.3508C26.1006 14.3153 24.7925 14.8571 23.4285 14.8571C22.0645 14.8571 20.7564 14.3153 19.792 13.3508C18.8275 12.3864 18.2856 11.0782 18.2856 9.71428C18.2856 8.35031 18.8275 7.0422 19.792 6.07773C20.7564 5.11326 22.0645 4.57142 23.4285 4.57142C24.7925 4.57142 26.1006 5.11326 27.0651 6.07773C28.0295 7.0422 28.5714 8.35031 28.5714 9.71428ZM23.4285 6.28571C21.5382 6.28571 19.9999 7.82399 19.9999 9.71428C19.9999 11.6046 21.5382 13.1428 23.4285 13.1428C25.3188 13.1428 26.8571 11.6046 26.8571 9.71428C26.8571 7.82399 25.3188 6.28571 23.4285 6.28571ZM10.8571 2.28571C12.5241 2.28571 14.1229 2.94795 15.3017 4.12675C16.4805 5.30555 17.1428 6.90435 17.1428 8.57142C17.1428 10.2385 16.4805 11.8373 15.3017 13.0161C14.1229 14.1949 12.5241 14.8571 10.8571 14.8571C9.19 14.8571 7.5912 14.1949 6.4124 13.0161C5.2336 11.8373 4.57136 10.2385 4.57136 8.57142C4.57136 6.90435 5.2336 5.30555 6.4124 4.12675C7.5912 2.94795 9.19 2.28571 10.8571 2.28571ZM10.8571 3.99999C8.33593 3.99999 6.28564 6.05028 6.28564 8.57142C6.28564 11.0926 8.33593 13.1428 10.8571 13.1428C13.3782 13.1428 15.4285 11.0926 15.4285 8.57142C15.4285 6.05028 13.3782 3.99999 10.8571 3.99999ZM30.8571 23.4286C30.8571 25.3987 30.0744 27.2882 28.6813 28.6814C27.2882 30.0745 25.3987 30.8571 23.4285 30.8571C21.4583 30.8571 19.5688 30.0745 18.1757 28.6814C16.7826 27.2882 15.9999 25.3987 15.9999 23.4286C15.9999 21.4584 16.7826 19.5689 18.1757 18.1758C19.5688 16.7826 21.4583 16 23.4285 16C25.3987 16 27.2882 16.7826 28.6813 18.1758C30.0744 19.5689 30.8571 21.4584 30.8571 23.4286ZM23.9999 18.8571C23.9999 18.7056 23.9397 18.5602 23.8326 18.4531C23.7254 18.3459 23.5801 18.2857 23.4285 18.2857C23.277 18.2857 23.1316 18.3459 23.0244 18.4531C22.9173 18.5602 22.8571 18.7056 22.8571 18.8571V22.8571H18.8571C18.7055 22.8571 18.5602 22.9173 18.453 23.0245C18.3458 23.1317 18.2856 23.277 18.2856 23.4286C18.2856 23.5801 18.3458 23.7255 18.453 23.8326C18.5602 23.9398 18.7055 24 18.8571 24H22.8571V28C22.8571 28.1515 22.9173 28.2969 23.0244 28.4041C23.1316 28.5112 23.277 28.5714 23.4285 28.5714C23.5801 28.5714 23.7254 28.5112 23.8326 28.4041C23.9397 28.2969 23.9999 28.1515 23.9999 28V24H27.9999C28.1515 24 28.2968 23.9398 28.404 23.8326C28.5112 23.7255 28.5714 23.5801 28.5714 23.4286C28.5714 23.277 28.5112 23.1317 28.404 23.0245C28.2968 22.9173 28.1515 22.8571 27.9999 22.8571H23.9999V18.8571Z" fill="#F24E1E"/>
</svg>
